<?xml version="1.0" standalone="no"?>
<!DOCTYPE svg PUBLIC "-//W3C//DTD SVG 20010904//EN"
 "http://www.w3.org/TR/2001/REC-SVG-20010904/DTD/svg10.dtd">
<svg version="1.0" xmlns="http://www.w3.org/2000/svg"
 width="120.000000pt" height="120.000000pt" viewBox="0 0 120.000000 120.000000"
 preserveAspectRatio="xMidYMid meet">

<g transform="translate(0.000000,120.000000) scale(0.100000,-0.100000)"
fill="#000000" stroke="none">
<path d="M143 1139 c-40 -12 -80 -59 -89 -105 -13 -69 7 -100 151 -244 l135
-135 102 103 103 102 -125 125 c-155 155 -195 178 -277 154z"/>
<path d="M951 1135 c-20 -9 -213 -194 -458 -437 -334 -333 -426 -430 -435
-459 -34 -117 78 -220 188 -174 48 20 869 833 890 882 40 92 -15 188 -113 199
-22 2 -53 -2 -72 -11z"/>
<path d="M755 440 l-100 -100 120 -121 c142 -142 188 -174 246 -166 97 13 152
103 119 194 -10 24 -266 293 -280 293 -3 0 -50 -45 -105 -100z"/>
</g>
</svg>
