<?xml version="1.0" standalone="no"?>
<!DOCTYPE svg PUBLIC "-//W3C//DTD SVG 20010904//EN"
 "http://www.w3.org/TR/2001/REC-SVG-20010904/DTD/svg10.dtd">
<svg version="1.0" xmlns="http://www.w3.org/2000/svg"
 width="120.000000pt" height="120.000000pt" viewBox="0 0 120.000000 120.000000"
 preserveAspectRatio="xMidYMid meet">

<g transform="translate(0.000000,120.000000) scale(0.100000,-0.100000)"
fill="#000000" stroke="none">
<path d="M386 1164 c-237 -57 -399 -299 -357 -534 18 -98 63 -183 135 -256 72
-71 147 -110 258 -132 71 -14 86 -14 159 1 110 21 182 59 255 132 187 186 192
459 11 652 -119 127 -291 178 -461 137z"/>
<path d="M900 330 c-41 -43 -84 -82 -95 -88 -18 -10 -12 -19 75 -106 57 -58
108 -100 128 -107 68 -22 143 15 163 81 20 67 6 100 -84 195 -45 48 -89 90
-97 94 -11 6 -36 -14 -90 -69z"/>
</g>
</svg>
