<?xml version="1.0" encoding="UTF-8" standalone="no"?>
<!-- Created with Inkscape (http://www.inkscape.org/) -->

<svg
   version="1.1"
   id="svg1"
   width="150"
   height="150"
   viewBox="0 0 150 150"
   sodipodi:docname="Sico.svg"
   inkscape:version="1.3.2 (091e20e, 2023-11-25, custom)"
   xmlns:inkscape="http://www.inkscape.org/namespaces/inkscape"
   xmlns:sodipodi="http://sodipodi.sourceforge.net/DTD/sodipodi-0.dtd"
   xmlns="http://www.w3.org/2000/svg"
   xmlns:svg="http://www.w3.org/2000/svg">
  <sodipodi:namedview
     id="namedview1"
     pagecolor="#505050"
     bordercolor="#ffffff"
     borderopacity="1"
     inkscape:showpageshadow="0"
     inkscape:pageopacity="0"
     inkscape:pagecheckerboard="1"
     inkscape:deskcolor="#505050"
     inkscape:zoom="4.4466667"
     inkscape:cx="76.7991"
     inkscape:cy="62.406297"
     inkscape:window-width="1920"
     inkscape:window-height="1051"
     inkscape:window-x="-9"
     inkscape:window-y="-9"
     inkscape:window-maximized="1"
     inkscape:current-layer="svg1" />
  <defs
     id="defs1" />
  <g
     id="g1"
     transform="translate(0.09586559,-0.04512324)">
    <path
       id="path1"
       style="fill:#282832;fill-opacity:1;stroke-width:1.25485;paint-order:markers stroke fill"
       d="M 67.128906,9.1074219 A 58.13343,58.13343 0 0 0 8.9960938,67.242188 58.13343,58.13343 0 0 0 67.128906,125.375 58.13343,58.13343 0 0 0 125.26172,67.242188 58.13343,58.13343 0 0 0 67.128906,9.1074219 Z m 0,18.6660161 A 39.467762,39.467762 0 0 1 106.59766,67.242188 39.467762,39.467762 0 0 1 67.128906,106.70898 39.467762,39.467762 0 0 1 27.662109,67.242188 39.467762,39.467762 0 0 1 67.128906,27.773438 Z"
       inkscape:label="Krug" />
    <rect
       style="opacity:1;fill:#282832;fill-opacity:1;stroke-width:1.29811"
       id="rect4"
       width="18.993273"
       height="54.785923"
       x="-9.6173038"
       y="140.77675"
       rx="10.399485"
       transform="rotate(-45)"
       inkscape:label="Poloska" />
  </g>
</svg>
